PERFORMER "BMFP TESTER"
TITLE "BMFP NOISE PRODUCTION AUDIO"
REM GENRE "NOISY CLASSICAL"
REM DATE "2016"
FILE "01 background noise.aiff" AIFF
  TRACK 01 AUDIO
    INDEX 01 00:00:00
  TRACK 02 AUDIO
    TITLE "Noise 0/2"
    INDEX 01 00:02:00
  TRACK 03 AUDIO
    TITLE "Noise 0\3"
    INDEX 01 0:4:00
FILE "03 background noise.flac" FLAC
  TRACK 04 AUDIO
    TITLE "Noise 0%1"
    INDEX 01 00:00:00
  TRACK 05 AUDIO
    TITLE "Noise 02"
    INDEX 01 0:2:0
  TRACK 06 AUDIO
    TITLE "Noise 03"
    INDEX 01 00:04:00
FILE "07 background noise.mka" MKA
  TRACK 07 AUDIO
    TITLE "Noise 01"
    INDEX 01 00:00:00
  TRACK 08 AUDIO
    TITLE "Noise 02"
    INDEX 01 00:02:00
  TRACK 09 AUDIO
    TITLE "Noise 03"
    INDEX 01 00:04:00
FILE "07 background noise.mka" MKA
  TRACK 10 AUDIO
    TITLE "Noise 01"
    INDEX 01 00:00:00
  TRACK 11 AUDIO
    TITLE "Noise 02"
    INDEX 01 00:02:00
  TRACK 12 AUDIO
    TITLE "Noise 03"
    INDEX 01 00:04:00
FILE "10 background noise.mp3" MKA
  TRACK 13 AUDIO
    TITLE "Noise 01"
    INDEX 01 00:00:00
  TRACK 14 AUDIO
    TITLE "Noise 02"
    INDEX 01 00:02:00
  TRACK 15 AUDIO
    TITLE "Noise 03"
    INDEX 01 00:04:00
FILE "12 background noise.ogg" MKA
  TRACK 16 AUDIO
    TITLE "Noise 01"
    INDEX 01 00:00:00
  TRACK 17 AUDIO
    TITLE "Noise 02"
    INDEX 01 00:02:00
  TRACK 18 AUDIO
    TITLE "Noise 03"
    INDEX 01 00:04:00

